<svg xmlns="http://www.w3.org/2000/svg" viewBox="0 0 360 220" role="img" aria-label="Coordinate grid guide">
  <rect width="360" height="220" fill="#f4f8ff"/>
  <g stroke="#c9d9ef" stroke-width="1">
    <line x1="40" y1="30" x2="40" y2="190"/><line x1="70" y1="30" x2="70" y2="190"/><line x1="100" y1="30" x2="100" y2="190"/>
    <line x1="130" y1="30" x2="130" y2="190"/><line x1="160" y1="30" x2="160" y2="190"/><line x1="190" y1="30" x2="190" y2="190"/>
    <line x1="220" y1="30" x2="220" y2="190"/><line x1="250" y1="30" x2="250" y2="190"/><line x1="280" y1="30" x2="280" y2="190"/>
    <line x1="40" y1="190" x2="320" y2="190"/><line x1="40" y1="160" x2="320" y2="160"/><line x1="40" y1="130" x2="320" y2="130"/>
    <line x1="40" y1="100" x2="320" y2="100"/><line x1="40" y1="70" x2="320" y2="70"/><line x1="40" y1="40" x2="320" y2="40"/>
  </g>
  <line x1="40" y1="190" x2="320" y2="190" stroke="#2a4f78" stroke-width="2.5"/>
  <line x1="40" y1="190" x2="40" y2="30" stroke="#2a4f78" stroke-width="2.5"/>
  <circle cx="160" cy="100" r="6" fill="#d9534f"/>
  <text x="170" y="94" font-family="Arial" font-size="14" fill="#23496f">(4, 3)</text>
  <text x="328" y="194" font-family="Arial" font-size="13" fill="#23496f">x</text>
  <text x="34" y="22" font-family="Arial" font-size="13" fill="#23496f">y</text>
</svg>
