<svg width="900" height="600" viewBox="0 0 900 600" fill="none" xmlns="http://www.w3.org/2000/svg" role="img" aria-labelledby="title desc">
  <title id="title">Junior high students practicing math equations</title>
  <desc id="desc">Outline illustration of three junior high students solving equations on a board with notebooks and geometry tools.</desc>

  <rect x="20" y="20" width="860" height="560" rx="26" fill="#F8FCFF" stroke="#8DB6DA" stroke-width="4"/>
  <circle cx="92" cy="92" r="26" fill="#FFD36C" fill-opacity="0.45"/>
  <circle cx="806" cy="88" r="24" fill="#7EDB9E" fill-opacity="0.45"/>

  <rect x="130" y="70" width="640" height="210" rx="14" fill="#FFFFFF" stroke="#4E89BC" stroke-width="4"/>
  <line x1="150" y1="130" x2="750" y2="130" stroke="#D3E4F3" stroke-width="2"/>
  <line x1="150" y1="185" x2="750" y2="185" stroke="#D3E4F3" stroke-width="2"/>
  <line x1="150" y1="240" x2="750" y2="240" stroke="#D3E4F3" stroke-width="2"/>

  <g stroke="#1E4E79" stroke-width="5" stroke-linecap="round" stroke-linejoin="round">
    <path d="M185 120L260 120"/>
    <path d="M222 85L222 155"/>
    <path d="M300 103L365 155"/>
    <path d="M365 103L300 155"/>

    <path d="M420 105H555"/>
    <path d="M420 155H555"/>

    <path d="M620 115C637 95 674 97 690 118C706 139 690 166 666 166C642 166 627 141 639 125"/>

    <path d="M176 210L230 210"/>
    <path d="M203 189L203 231"/>
    <path d="M250 210L300 210"/>
    <path d="M330 190L390 230L450 190"/>
    <path d="M515 205C545 185 585 185 615 205"/>
    <path d="M515 225C545 245 585 245 615 225"/>
  </g>

  <g fill="#FFFFFF" stroke="#173D5D" stroke-width="5" stroke-linecap="round" stroke-linejoin="round">
    <circle cx="245" cy="360" r="42"/>
    <path d="M206 422C210 384 280 384 284 422"/>
    <path d="M230 422V500"/>
    <path d="M260 422V500"/>
    <path d="M230 455L188 500"/>
    <path d="M260 455L302 500"/>

    <circle cx="450" cy="340" r="44"/>
    <path d="M406 407C412 365 488 365 494 407"/>
    <path d="M430 407V500"/>
    <path d="M470 407V500"/>
    <path d="M430 444L382 486"/>
    <path d="M470 444L518 486"/>

    <circle cx="660" cy="370" r="40"/>
    <path d="M624 430C630 394 690 394 696 430"/>
    <path d="M644 430V500"/>
    <path d="M676 430V500"/>
    <path d="M644 456L608 500"/>
    <path d="M676 456L712 500"/>
  </g>

  <g stroke="#1E4E79" stroke-width="5" stroke-linecap="round">
    <path d="M286 368L332 330"/>
    <path d="M516 338L558 300"/>
    <path d="M606 374L566 394"/>
  </g>

  <rect x="336" y="470" width="228" height="56" rx="8" fill="#FFFFFF" stroke="#5F96C4" stroke-width="4"/>
  <line x1="356" y1="489" x2="544" y2="489" stroke="#D7E8F5" stroke-width="2"/>
  <line x1="356" y1="505" x2="500" y2="505" stroke="#D7E8F5" stroke-width="2"/>

  <g stroke="#1E4E79" stroke-width="4" stroke-linecap="round">
    <path d="M116 540H784"/>
    <path d="M140 540L190 500"/>
    <path d="M760 540L710 500"/>
  </g>

  <g stroke="#F39A37" stroke-width="5" stroke-linecap="round">
    <path d="M96 120L110 140"/>
    <path d="M796 92L810 112"/>
    <path d="M92 468L112 458"/>
    <path d="M796 470L814 456"/>
  </g>

  <g fill="#FFFFFF" stroke="#3E78AA" stroke-width="3">
    <rect x="88" y="300" width="110" height="58" rx="10"/>
    <rect x="706" y="300" width="116" height="58" rx="10"/>
  </g>
  <g fill="#2A5F8F" font-family="Segoe UI, Arial, sans-serif" font-size="20" font-weight="700">
    <text x="106" y="336">7x - 9</text>
    <text x="724" y="336">x² + 4x</text>
  </g>

  <g stroke="#26A69A" stroke-width="4" fill="none" stroke-linecap="round">
    <path d="M102 270C132 250 162 250 192 270"/>
    <path d="M708 270C740 248 772 248 804 270"/>
  </g>
</svg>
