<svg xmlns="http://www.w3.org/2000/svg" viewBox="0 0 420 220" role="img" aria-label="Senior high study spotlight illustration">
  <defs>
    <linearGradient id="bg" x1="0" y1="0" x2="1" y2="1">
      <stop offset="0%" stop-color="#eef7ff"/>
      <stop offset="52%" stop-color="#fff9ef"/>
      <stop offset="100%" stop-color="#f1fff5"/>
    </linearGradient>
    <linearGradient id="screen" x1="0" y1="0" x2="0" y2="1">
      <stop offset="0%" stop-color="#2f6ea2"/>
      <stop offset="100%" stop-color="#1e5079"/>
    </linearGradient>
  </defs>

  <rect width="420" height="220" rx="18" fill="url(#bg)"/>

  <circle cx="56" cy="38" r="6" fill="#9ecaf7"/>
  <circle cx="376" cy="46" r="7" fill="#ffd996"/>
  <circle cx="392" cy="74" r="5" fill="#8fd6b8"/>

  <rect x="72" y="34" width="276" height="154" rx="16" fill="#fbfeff" stroke="#c8deef" stroke-width="2"/>
  <rect x="88" y="50" width="244" height="96" rx="12" fill="url(#screen)"/>

  <rect x="104" y="68" width="58" height="58" rx="10" fill="#ffdca6"/>
  <path d="M118 95 q15 -16 30 0" fill="none" stroke="#27455f" stroke-width="2" stroke-linecap="round"/>
  <circle cx="125" cy="101" r="2" fill="#27455f"/>
  <circle cx="141" cy="101" r="2" fill="#27455f"/>

  <rect x="176" y="72" width="136" height="10" rx="5" fill="#ffffff"/>
  <rect x="176" y="90" width="110" height="8" rx="4" fill="#cfe5f9"/>
  <rect x="176" y="106" width="124" height="8" rx="4" fill="#cfe5f9"/>

  <rect x="96" y="158" width="102" height="14" rx="7" fill="#2f6ea2"/>
  <rect x="208" y="158" width="114" height="14" rx="7" fill="#ffd36c"/>

  <path d="M228 187 C248 174, 282 171, 311 186" fill="none" stroke="#6ea2cb" stroke-width="3" stroke-linecap="round"/>
  <circle cx="228" cy="187" r="4" fill="#2f6ea2"/>
  <circle cx="311" cy="186" r="4" fill="#2f6ea2"/>

  <text x="210" y="208" text-anchor="middle" font-family="Arial, sans-serif" font-size="14" font-weight="700" fill="#1f5076">Focused Study, Strong Performance</text>
</svg>
