<svg xmlns="http://www.w3.org/2000/svg" viewBox="0 0 360 220" role="img" aria-label="Student success milestone illustration">
  <defs>
    <linearGradient id="bg" x1="0" y1="0" x2="1" y2="1">
      <stop offset="0%" stop-color="#f2fbff"/>
      <stop offset="100%" stop-color="#fff7df"/>
    </linearGradient>
    <linearGradient id="gold" x1="0" y1="0" x2="0" y2="1">
      <stop offset="0%" stop-color="#ffd971"/>
      <stop offset="100%" stop-color="#f0b73e"/>
    </linearGradient>
  </defs>

  <rect width="360" height="220" fill="url(#bg)"/>

  <circle cx="64" cy="42" r="3" fill="#9ac7ff"/>
  <circle cx="300" cy="36" r="4" fill="#ffd78f"/>
  <circle cx="328" cy="62" r="2.5" fill="#9ac7ff"/>

  <rect x="144" y="52" width="72" height="20" rx="10" fill="#1e5f95"/>

  <circle cx="180" cy="108" r="44" fill="url(#gold)" stroke="#c58a1c" stroke-width="3"/>
  <polygon points="180,82 187,100 206,100 191,112 197,130 180,119 163,130 169,112 154,100 173,100" fill="#fff2bf" stroke="#d39b30" stroke-width="2"/>

  <path d="M146 130 C132 118, 115 120, 104 136 C96 148, 98 165, 108 173 C124 186, 143 176, 150 160" fill="#4d9ae8"/>
  <path d="M214 130 C228 118, 245 120, 256 136 C264 148, 262 165, 252 173 C236 186, 217 176, 210 160" fill="#4d9ae8"/>

  <rect x="82" y="166" width="196" height="10" rx="5" fill="#d7e9ff"/>
  <text x="180" y="194" text-anchor="middle" font-family="Arial, sans-serif" font-size="15" font-weight="700" fill="#214f78">Keep Going, You Are Winning!</text>
</svg>
